<?xml version="1.0" encoding="iso-8859-1"?>
<!-- Generator: Adobe Illustrator 16.0.0, SVG Export Plug-In . SVG Version: 6.00 Build 0)  -->
<!DOCTYPE svg PUBLIC "-//W3C//DTD SVG 1.1//EN" "http://www.w3.org/Graphics/SVG/1.1/DTD/svg11.dtd">
<svg version="1.1" id="Capa_1" xmlns="http://www.w3.org/2000/svg" xmlns:xlink="http://www.w3.org/1999/xlink" x="0px" y="0px"
	 width="193.456px" height="60px" viewBox="0 0 193.456 193.456" style="enable-background:new 0 0 193.456 193.456;"
	 xml:space="preserve">
<g>
	<path d="M99.546,50.48L86.519,77.955c4.823,5.273,7.453,12.069,7.453,19.376c0,1.705-1.397,3.118-3.118,3.118
		c-1.72,0-3.117-1.413-3.117-3.118c0-6.357-2.521-12.193-7.097-16.478c-0.99-0.916-1.273-2.39-0.685-3.604l13.959-29.45
		c0.743-1.544,2.594-2.207,4.153-1.482C99.62,47.077,100.277,48.934,99.546,50.48z M193.277,57.763l-35.743,102.943
		c-0.019,0.061-0.092,0.085-0.116,0.146c-1.084,12.349-39.95,15.661-60.685,15.661c-20.733,0-59.616-3.312-60.699-15.661
		c-0.024-0.062-0.088-0.086-0.113-0.146L0.174,57.763c-0.45-1.291-0.006-2.719,1.09-3.528c1.105-0.804,2.601-0.804,3.699,0
		l49.514,36.34c1.096,0.804,1.546,2.226,1.108,3.517c-0.399,1.169-0.591,2.229-0.591,3.239c0,5.596,4.545,10.132,10.132,10.132
		S75.26,102.92,75.26,97.331c0-5.249-3.973-9.557-9.228-10.011c-1.017-0.106-1.927-0.67-2.433-1.559
		c-0.505-0.898-0.548-1.961-0.113-2.896l30.421-64.134c0.518-1.105,1.61-1.791,2.819-1.791s2.302,0.685,2.819,1.791l30.397,64.085
		c0.438,0.935,0.39,2.031-0.135,2.944c-0.529,0.889-1.473,1.452-2.515,1.501c-5.37,0.292-9.584,4.722-9.584,10.068
		c0,5.596,4.549,10.132,10.132,10.132c5.59,0,10.133-4.542,10.133-10.132c0-1.229-0.237-2.466-0.719-3.702
		c-0.518-1.328-0.073-2.838,1.097-3.666L188.54,54.21c1.102-0.792,2.588-0.78,3.678,0.036
		C193.289,55.063,193.734,56.484,193.277,57.763z M151.286,160.335c-0.542-3.361-20.289-9.944-54.553-9.944
		c-34.27,0-54.022,6.583-54.564,9.968c0.578,3.35,20.371,9.926,54.564,9.926C130.917,170.285,150.708,163.708,151.286,160.335z
		 M184.179,64.966l-40.396,28.771c0.274,1.188,0.421,2.387,0.421,3.593c0,9.019-7.35,16.368-16.368,16.368
		c-9.023,0-16.367-7.356-16.367-16.368c0-7.143,4.621-13.28,11.118-15.454L96.727,27.33L70.788,82.019
		c6.323,2.287,10.708,8.267,10.708,15.312c0,9.024-7.347,16.368-16.368,16.368c-9.024,0-16.368-7.35-16.368-16.368
		c0-0.986,0.101-1.973,0.305-2.989L9.345,65.177l30.766,88.6c10.495-7.429,38.541-9.621,56.617-9.621
		c18.066,0,46.119,2.192,56.604,9.621L184.179,64.966z"/>
</g>
<g>
</g>
<g>
</g>
<g>
</g>
<g>
</g>
<g>
</g>
<g>
</g>
<g>
</g>
<g>
</g>
<g>
</g>
<g>
</g>
<g>
</g>
<g>
</g>
<g>
</g>
<g>
</g>
<g>
</g>
</svg>
